<?xml version="1.0" standalone="no"?><!DOCTYPE svg PUBLIC "-//W3C//DTD SVG 1.1//EN" "http://www.w3.org/Graphics/SVG/1.1/DTD/svg11.dtd"><svg t="1626502513759" class="icon" viewBox="0 0 1024 1024" version="1.1" xmlns="http://www.w3.org/2000/svg" p-id="13063" xmlns:xlink="http://www.w3.org/1999/xlink" width="200" height="200"><defs><style type="text/css"></style></defs><path d="M768 0H256C112.64 0 0 112.64 0 256v512c0 143.36 112.64 256 256 256h512c143.36 0 256-112.64 256-256V256c0-143.36-112.64-256-256-256zM481.28 742.4c0 30.72-20.48 51.2-51.2 51.2h-153.6c-30.72 0-51.2-20.48-51.2-51.2v-153.6c0-30.72 20.48-51.2 51.2-51.2h153.6c30.72 0 51.2 20.48 51.2 51.2v153.6z m0-307.2c0 30.72-20.48 51.2-51.2 51.2h-153.6c-30.72 0-51.2-20.48-51.2-51.2v-153.6c0-30.72 20.48-51.2 51.2-51.2h153.6c30.72 0 51.2 20.48 51.2 51.2v153.6z m307.2 307.2c0 30.72-20.48 51.2-51.2 51.2h-153.6c-30.72 0-51.2-20.48-51.2-51.2v-153.6c0-30.72 20.48-51.2 51.2-51.2h153.6c30.72 0 51.2 20.48 51.2 51.2v153.6z m5.12-358.4l-92.16 92.16c-20.48 20.48-51.2 20.48-71.68 0l-92.16-92.16c-20.48-20.48-20.48-51.2 0-71.68l92.16-92.16c20.48-20.48 51.2-20.48 71.68 0l92.16 92.16c15.36 20.48 15.36 51.2 0 71.68z" fill="#50A1FF" p-id="13064"></path></svg>