<?xml version="1.0" standalone="no"?><!DOCTYPE svg PUBLIC "-//W3C//DTD SVG 1.1//EN" "http://www.w3.org/Graphics/SVG/1.1/DTD/svg11.dtd"><svg t="1626502406495" class="icon" viewBox="0 0 1024 1024" version="1.1" xmlns="http://www.w3.org/2000/svg" p-id="10255" xmlns:xlink="http://www.w3.org/1999/xlink" width="200" height="200"><defs><style type="text/css"></style></defs><path d="M0 0m128 0l768 0q128 0 128 128l0 768q0 128-128 128l-768 0q-128 0-128-128l0-768q0-128 128-128Z" fill="#a04cf1" p-id="10256"></path><path d="M298.368 240.768a62.016 62.016 0 0 0-61.888 61.824v144.384c0 33.92 19.712 81.472 43.84 105.6l246.144 246.08a61.952 61.952 0 0 0 87.424 0l180.608-180.48a62.08 62.08 0 0 0 0-87.488L548.288 284.48c-24.064-24.064-71.552-43.712-105.6-43.712H298.368z m82.112 205.696a61.696 61.696 0 1 1 0-123.52 61.696 61.696 0 0 1 0 123.52z" fill="#ffffff" p-id="10257"></path></svg>